<mxfile host="app.diagrams.net" modified="2021-12-16T09:02:19.913Z" agent="5.0 (Windows NT 10.0; Win64; x64) AppleWebKit/537.36 (KHTML, like Gecko) Chrome/94.0.4606.61 Safari/537.36" etag="vfzoV9ODFNqSrwHubNIN" version="15.9.6" type="github">
  <diagram id="lnhnSE5hxXRS0DGwEQuF" name="Page-1">
    <mxGraphModel dx="1422" dy="762" grid="1" gridSize="10" guides="1" tooltips="1" connect="1" arrows="1" fold="1" page="1" pageScale="1" pageWidth="827" pageHeight="1169" math="0" shadow="0">
      <root>
        <mxCell id="0" />
        <mxCell id="1" parent="0" />
        <mxCell id="hjzQI-OqMZe8Pcpz7Bgd-1" value="" style="rounded=1;whiteSpace=wrap;html=1;" vertex="1" parent="1">
          <mxGeometry x="50" y="120" width="750" height="250" as="geometry" />
        </mxCell>
        <mxCell id="hjzQI-OqMZe8Pcpz7Bgd-2" value="" style="rounded=1;whiteSpace=wrap;html=1;fillColor=#dae8fc;strokeColor=#6c8ebf;sketch=1;fillStyle=zigzag-line;" vertex="1" parent="1">
          <mxGeometry x="60" y="170" width="500" height="190" as="geometry" />
        </mxCell>
        <mxCell id="hjzQI-OqMZe8Pcpz7Bgd-3" value="" style="rounded=1;whiteSpace=wrap;html=1;sketch=1;fillColor=#6a00ff;strokeColor=#3700CC;fillStyle=zigzag-line;fontColor=#ffffff;" vertex="1" parent="1">
          <mxGeometry x="570" y="170" width="220" height="190" as="geometry" />
        </mxCell>
        <mxCell id="hjzQI-OqMZe8Pcpz7Bgd-4" value="&lt;h1&gt;堆&lt;/h1&gt;" style="text;html=1;align=center;verticalAlign=middle;resizable=0;points=[];autosize=1;strokeColor=none;fillColor=none;rotation=0;" vertex="1" parent="1">
          <mxGeometry x="394" y="120" width="40" height="50" as="geometry" />
        </mxCell>
        <mxCell id="hjzQI-OqMZe8Pcpz7Bgd-7" value="" style="rounded=1;whiteSpace=wrap;html=1;sketch=1;fillStyle=zigzag-line;fillColor=#60a917;strokeColor=#2D7600;fontColor=#ffffff;" vertex="1" parent="1">
          <mxGeometry x="80" y="200" width="360" height="150" as="geometry" />
        </mxCell>
        <mxCell id="hjzQI-OqMZe8Pcpz7Bgd-20" value="" style="rounded=1;whiteSpace=wrap;html=1;sketch=1;fillStyle=zigzag-line;shadow=0;" vertex="1" parent="1">
          <mxGeometry x="456" y="200" width="94" height="150" as="geometry" />
        </mxCell>
        <mxCell id="hjzQI-OqMZe8Pcpz7Bgd-9" value="" style="rounded=1;whiteSpace=wrap;html=1;sketch=1;fillStyle=zigzag-line;fillColor=#1ba1e2;fontColor=#ffffff;strokeColor=#006EAF;" vertex="1" parent="1">
          <mxGeometry x="456" y="280" width="94" height="70" as="geometry" />
        </mxCell>
        <mxCell id="hjzQI-OqMZe8Pcpz7Bgd-12" value="" style="rounded=1;whiteSpace=wrap;html=1;sketch=1;fillStyle=zigzag-line;fillColor=#1ba1e2;fontColor=#ffffff;strokeColor=#006EAF;" vertex="1" parent="1">
          <mxGeometry x="456" y="200" width="94" height="70" as="geometry" />
        </mxCell>
        <mxCell id="hjzQI-OqMZe8Pcpz7Bgd-13" value="&lt;h3&gt;新生代&lt;/h3&gt;" style="text;html=1;align=center;verticalAlign=middle;resizable=0;points=[];autosize=1;strokeColor=none;fillColor=none;" vertex="1" parent="1">
          <mxGeometry x="280" y="160" width="60" height="50" as="geometry" />
        </mxCell>
        <mxCell id="hjzQI-OqMZe8Pcpz7Bgd-14" value="&lt;h3&gt;老年代&lt;/h3&gt;" style="text;html=1;align=center;verticalAlign=middle;resizable=0;points=[];autosize=1;strokeColor=none;fillColor=none;" vertex="1" parent="1">
          <mxGeometry x="650" y="235" width="60" height="50" as="geometry" />
        </mxCell>
        <mxCell id="hjzQI-OqMZe8Pcpz7Bgd-15" value="&lt;h4&gt;eden区&lt;/h4&gt;" style="text;html=1;align=center;verticalAlign=middle;resizable=0;points=[];autosize=1;strokeColor=none;fillColor=none;" vertex="1" parent="1">
          <mxGeometry x="230" y="245" width="60" height="50" as="geometry" />
        </mxCell>
        <mxCell id="hjzQI-OqMZe8Pcpz7Bgd-16" value="&lt;h4&gt;From&lt;/h4&gt;" style="text;html=1;align=center;verticalAlign=middle;resizable=0;points=[];autosize=1;strokeColor=none;fillColor=none;" vertex="1" parent="1">
          <mxGeometry x="478" y="210" width="50" height="50" as="geometry" />
        </mxCell>
        <mxCell id="hjzQI-OqMZe8Pcpz7Bgd-17" value="&lt;h4&gt;To&lt;/h4&gt;" style="text;html=1;align=center;verticalAlign=middle;resizable=0;points=[];autosize=1;strokeColor=none;fillColor=none;" vertex="1" parent="1">
          <mxGeometry x="488" y="280" width="30" height="50" as="geometry" />
        </mxCell>
        <mxCell id="hjzQI-OqMZe8Pcpz7Bgd-18" value="&lt;h4&gt;Serviver区&lt;/h4&gt;" style="text;html=1;align=center;verticalAlign=middle;resizable=0;points=[];autosize=1;strokeColor=none;fillColor=none;" vertex="1" parent="1">
          <mxGeometry x="468" y="249" width="70" height="50" as="geometry" />
        </mxCell>
      </root>
    </mxGraphModel>
  </diagram>
</mxfile>
